<svg width="55" height="55" viewBox="0 0 55 55" fill="none" xmlns="http://www.w3.org/2000/svg">
<path d="M37.8125 22.3438C37.8125 21.3945 38.582 20.625 39.5312 20.625H42.9688C43.918 20.625 44.6875 21.3945 44.6875 22.3438V25.7812C44.6875 26.7305 43.918 27.5 42.9688 27.5H39.5312C38.582 27.5 37.8125 26.7305 37.8125 25.7812V22.3438Z" fill="black"/>
<path d="M27.5 22.3438C27.5 21.3945 28.2695 20.625 29.2188 20.625H32.6562C33.6055 20.625 34.375 21.3945 34.375 22.3438V25.7812C34.375 26.7305 33.6055 27.5 32.6562 27.5H29.2188C28.2695 27.5 27.5 26.7305 27.5 25.7812V22.3438Z" fill="black"/>
<path d="M10.3125 32.6562C10.3125 31.707 11.082 30.9375 12.0312 30.9375H15.4688C16.418 30.9375 17.1875 31.707 17.1875 32.6562V36.0938C17.1875 37.043 16.418 37.8125 15.4688 37.8125H12.0312C11.082 37.8125 10.3125 37.043 10.3125 36.0938V32.6562Z" fill="black"/>
<path d="M20.625 32.6562C20.625 31.707 21.3945 30.9375 22.3438 30.9375H25.7812C26.7305 30.9375 27.5 31.707 27.5 32.6562V36.0938C27.5 37.043 26.7305 37.8125 25.7812 37.8125H22.3438C21.3945 37.8125 20.625 37.043 20.625 36.0938V32.6562Z" fill="black"/>
<path d="M12.0312 0C12.9805 0 13.75 0.769511 13.75 1.71875V3.4375H41.25V1.71875C41.25 0.769511 42.0195 0 42.9688 0C43.918 0 44.6875 0.769511 44.6875 1.71875V3.4375H48.125C51.922 3.4375 55 6.51554 55 10.3125V48.125C55 51.922 51.922 55 48.125 55H6.875C3.07804 55 0 51.922 0 48.125V10.3125C0 6.51554 3.07804 3.4375 6.875 3.4375H10.3125V1.71875C10.3125 0.769511 11.082 0 12.0312 0ZM3.4375 13.75V48.125C3.4375 50.0235 4.97652 51.5625 6.875 51.5625H48.125C50.0235 51.5625 51.5625 50.0235 51.5625 48.125V13.75H3.4375Z" fill="black"/>
</svg>
