<svg width="57" height="55" viewBox="0 0 57 55" fill="none" xmlns="http://www.w3.org/2000/svg">
<path d="M28.5 12.0312C28.5 11.082 27.7025 10.3125 26.7188 10.3125C25.735 10.3125 24.9375 11.082 24.9375 12.0312V30.9375C24.9375 31.5543 25.28 32.1238 25.835 32.4298L38.3038 39.3048C39.1579 39.7757 40.246 39.4894 40.7341 38.6652C41.2221 37.8411 40.9254 36.7912 40.0712 36.3202L28.5 29.9401V12.0312Z" fill="black"/>
<path d="M28.5 55C44.2401 55 57 42.6878 57 27.5C57 12.3122 44.2401 0 28.5 0C12.7599 0 0 12.3122 0 27.5C0 42.6878 12.7599 55 28.5 55ZM53.4375 27.5C53.4375 40.7894 42.2726 51.5625 28.5 51.5625C14.7274 51.5625 3.5625 40.7894 3.5625 27.5C3.5625 14.2106 14.7274 3.4375 28.5 3.4375C42.2726 3.4375 53.4375 14.2106 53.4375 27.5Z" fill="black"/>
</svg>
