<svg width="54" height="54" viewBox="0 0 54 54" fill="none" xmlns="http://www.w3.org/2000/svg">
<path fill-rule="evenodd" clip-rule="evenodd" d="M20.25 6.75C20.9596 6.75 21.5934 7.19393 21.8359 7.86081L33.75 40.6246L38.9141 26.4233C39.1566 25.7564 39.7904 25.3125 40.5 25.3125H52.3125C53.2445 25.3125 54 26.068 54 27C54 27.932 53.2445 28.6875 52.3125 28.6875H41.682L35.3359 46.1392C35.0934 46.8061 34.4596 47.25 33.75 47.25C33.0404 47.25 32.4066 46.8061 32.1641 46.1392L20.25 13.3754L15.0859 27.5767C14.8434 28.2436 14.2096 28.6875 13.5 28.6875H1.6875C0.755519 28.6875 0 27.932 0 27C0 26.068 0.755519 25.3125 1.6875 25.3125H12.318L18.6641 7.86081C18.9066 7.19393 19.5404 6.75 20.25 6.75Z" fill="#F1C376"/>
</svg>
