<svg width="43" height="55" viewBox="0 0 43 55" fill="none" xmlns="http://www.w3.org/2000/svg">
<path d="M21.5 55C33.3051 55 42.875 48.125 42.875 36.0938C42.875 30.9375 41.0938 22.3438 33.9688 15.4688C34.8594 20.625 29.5156 22.3438 29.5156 22.3438C32.1875 13.75 25.0625 1.71875 14.375 0C15.6473 6.875 16.1562 13.75 7.25 20.625C2.79688 24.0625 0.125 30.0057 0.125 36.0938C0.125 48.125 9.69491 55 21.5 55ZM21.5 51.5625C15.5975 51.5625 10.8125 48.125 10.8125 42.1094C10.8125 39.5312 11.7031 35.2344 15.2656 31.7969C14.8203 34.375 17.9375 36.0938 17.9375 36.0938C16.6016 31.7969 19.7188 24.9219 25.0625 24.0625C24.4263 27.5 24.1719 30.9375 28.625 34.375C30.8516 36.0938 32.1875 39.0654 32.1875 42.1094C32.1875 48.125 27.4025 51.5625 21.5 51.5625Z" fill="black"/>
</svg>
