<svg width="42" height="54" viewBox="0 0 42 54" fill="none" xmlns="http://www.w3.org/2000/svg">
<path d="M21 54C32.1838 54 41.25 47.25 41.25 35.4375C41.25 30.375 39.5625 21.9375 32.8125 15.1875C33.6562 20.25 28.5938 21.9375 28.5938 21.9375C31.125 13.5 24.375 1.6875 14.25 0C15.4554 6.75 15.9375 13.5 7.5 20.25C3.28125 23.625 0.75 29.4601 0.75 35.4375C0.75 47.25 9.81623 54 21 54ZM21 50.625C15.4081 50.625 10.875 47.25 10.875 41.3438C10.875 38.8125 11.7188 34.5938 15.0938 31.2188C14.6719 33.75 17.625 35.4375 17.625 35.4375C16.3594 31.2188 19.3125 24.4688 24.375 23.625C23.7723 27 23.5312 30.375 27.75 33.75C29.8594 35.4375 31.125 38.3551 31.125 41.3438C31.125 47.25 26.5919 50.625 21 50.625Z" fill="#F1C376"/>
</svg>
