<svg width="55" height="49" viewBox="0 0 55 49" fill="none" xmlns="http://www.w3.org/2000/svg">
<path d="M42.9688 3.875C38.2225 3.875 34.375 7.72255 34.375 12.4688C34.375 13.418 33.6055 14.1875 32.6562 14.1875C31.707 14.1875 30.9375 13.418 30.9375 12.4688C30.9375 5.82407 36.3241 0.4375 42.9688 0.4375C49.6134 0.4375 55 5.82407 55 12.4688C55 19.1134 49.6134 24.5 42.9688 24.5H1.71875C0.769511 24.5 0 23.7305 0 22.7812C0 21.832 0.769511 21.0625 1.71875 21.0625H42.9688C47.715 21.0625 51.5625 17.2149 51.5625 12.4688C51.5625 7.72255 47.715 3.875 42.9688 3.875ZM18.9062 7.3125C17.0078 7.3125 15.4688 8.85152 15.4688 10.75C15.4688 11.6992 14.6992 12.4688 13.75 12.4688C12.8008 12.4688 12.0312 11.6992 12.0312 10.75C12.0312 6.95304 15.1093 3.875 18.9062 3.875C22.7032 3.875 25.7812 6.95304 25.7812 10.75C25.7812 14.547 22.7032 17.625 18.9062 17.625H1.71875C0.769511 17.625 0 16.8555 0 15.9062C0 14.957 0.769511 14.1875 1.71875 14.1875H18.9062C20.8047 14.1875 22.3438 12.6485 22.3438 10.75C22.3438 8.85152 20.8047 7.3125 18.9062 7.3125ZM0 29.6562C0 28.707 0.769511 27.9375 1.71875 27.9375H36.237C41.9324 27.9375 46.5495 32.5546 46.5495 38.25C46.5495 43.9454 41.9324 48.5625 36.237 48.5625C30.5415 48.5625 25.9245 43.9454 25.9245 38.25C25.9245 37.3008 26.694 36.5312 27.6432 36.5312C28.5925 36.5312 29.362 37.3008 29.362 38.25C29.362 42.047 32.44 45.125 36.237 45.125C40.0339 45.125 43.112 42.047 43.112 38.25C43.112 34.453 40.0339 31.375 36.237 31.375H1.71875C0.769511 31.375 0 30.6055 0 29.6562Z" fill="#DDE6ED"/>
</svg>
