<svg width="43" height="55" viewBox="0 0 43 55" fill="none" xmlns="http://www.w3.org/2000/svg">
<path fill-rule="evenodd" clip-rule="evenodd" d="M18.6827 2.75112C20.3929 1.01238 21.5 0 21.5 0C21.8879 1.24754 22.3321 2.43506 22.8223 3.56907C25.7136 10.2566 30.2077 15.083 34.2092 19.3803C38.8773 24.3936 42.875 28.6868 42.875 34.375C42.875 45.7659 33.3051 55 21.5 55C9.69491 55 0.125 45.7659 0.125 34.375C0.125 22.9213 12.878 8.6525 18.6827 2.75112ZM20.1583 6.26065C18.2954 8.20923 15.9652 10.7852 13.642 13.7155C11.0531 16.9809 8.52626 20.6198 6.65944 24.2696C4.77337 27.9569 3.6875 31.4122 3.6875 34.375C3.6875 43.8674 11.6624 51.5625 21.5 51.5625C31.3376 51.5625 39.3125 43.8674 39.3125 34.375C39.3125 30.2458 36.4777 26.9599 31.5414 21.6587L31.4363 21.5458C27.7303 17.5661 23.2795 12.7866 20.1583 6.26065Z" fill="#DDE6ED"/>
<path fill-rule="evenodd" clip-rule="evenodd" d="M9.2193 26.7313C12.1433 21.0886 15.3378 17.2653 16.678 15.9722L19.197 18.4028C18.1622 19.4014 15.1817 22.9114 12.4057 28.2687L9.2193 26.7313Z" fill="#DDE6ED"/>
</svg>
