<svg width="55" height="55" viewBox="0 0 55 55" fill="none" xmlns="http://www.w3.org/2000/svg">
<path d="M12.5602 4.56668C11.6993 3.45982 10.0631 3.35796 9.07158 4.34949L5.51746 7.9036C3.85551 9.56555 3.24455 11.9201 3.97066 13.9854C6.88661 22.2792 11.6605 30.0668 18.2969 36.7031C24.9332 43.3395 32.7208 48.1134 41.0146 51.0293C43.0799 51.7554 45.4344 51.1445 47.0964 49.4825L50.6505 45.9284C51.642 44.9369 51.5402 43.3007 50.4333 42.4398L42.5058 36.274C41.9403 35.8342 41.2041 35.6787 40.5091 35.8525L32.9842 37.7337C30.9403 38.2447 28.7782 37.6458 27.2884 36.1561L18.8439 27.7116C17.3542 26.2218 16.7553 24.0597 17.2663 22.0158L19.1475 14.4909C19.3213 13.7959 19.1658 13.0597 18.726 12.4942L12.5602 4.56668ZM6.47891 1.75682C9.02992 -0.794195 13.2395 -0.532115 15.4544 2.31562L21.6203 10.2432C22.7518 11.6979 23.1516 13.5922 22.7046 15.3802L20.8234 22.9051C20.6248 23.6995 20.8576 24.5399 21.4366 25.1189L29.8811 33.5634C30.4601 34.1424 31.3005 34.3752 32.0949 34.1766L39.6198 32.2954C41.4078 31.8484 43.3021 32.2482 44.7569 33.3797L52.6844 39.5456C55.5321 41.7605 55.7942 45.9701 53.2432 48.5211L49.6891 52.0752C47.1463 54.618 43.343 55.7345 39.7985 54.4884C30.9978 51.3942 22.7369 46.3286 15.7042 39.2958C8.67142 32.2631 3.60576 24.0022 0.511631 15.2015C-0.734533 11.657 0.38201 7.85372 2.9248 5.31093L6.47891 1.75682Z" fill="black"/>
</svg>
