<svg width="54" height="54" viewBox="0 0 54 54" fill="none" xmlns="http://www.w3.org/2000/svg">
<path d="M12.3318 4.48365C11.4866 3.39692 9.88014 3.2969 8.90664 4.27041L5.41715 7.7599C3.78541 9.39163 3.18556 11.7033 3.89847 13.7311C6.76139 21.8742 11.4485 29.5201 17.9642 36.0358C24.4798 42.5515 32.1258 47.2386 40.2689 50.1015C42.2967 50.8144 44.6084 50.2146 46.2401 48.5829L49.7296 45.0934C50.7031 44.1199 50.6031 42.5134 49.5163 41.6682L41.733 35.6144C41.1778 35.1826 40.4549 35.03 39.7726 35.2006L32.3845 37.0477C30.3778 37.5493 28.2549 36.9613 26.7923 35.4987L18.5013 27.2077C17.0387 25.7451 16.4507 23.6222 16.9524 21.6155L18.7994 14.2274C18.97 13.5451 18.8174 12.8222 18.3856 12.2671L12.3318 4.48365ZM6.36111 1.72488C8.86574 -0.779755 12.9988 -0.52244 15.1734 2.27352L21.2272 10.0569C22.3381 11.4853 22.7307 13.345 22.2918 15.1005L20.4448 22.4886C20.2498 23.2686 20.4783 24.0937 21.0468 24.6622L29.3378 32.9532C29.9063 33.5217 30.7314 33.7502 31.5114 33.5552L38.8995 31.7082C40.655 31.2693 42.5148 31.6619 43.9431 32.7728L51.7265 38.8266C54.5224 41.0012 54.7798 45.1343 52.2751 47.6389L48.7856 51.1284C46.2891 53.6249 42.555 54.7212 39.0749 53.4977C30.4342 50.4598 22.3235 45.4862 15.4187 38.5813C8.51376 31.6765 3.5402 23.5658 0.502328 14.9251C-0.721178 11.445 0.375064 7.71092 2.87162 5.21437L6.36111 1.72488Z" fill="#DDE6ED"/>
</svg>
