<svg width="54" height="45" viewBox="0 0 54 45" fill="none" xmlns="http://www.w3.org/2000/svg">
<path d="M27 29.0625C30.7279 29.0625 33.75 26.0404 33.75 22.3125C33.75 18.5846 30.7279 15.5625 27 15.5625C23.2721 15.5625 20.25 18.5846 20.25 22.3125C20.25 26.0404 23.2721 29.0625 27 29.0625Z" fill="#F1C376"/>
<path d="M32.0625 3.75C29.0229 3.75 26.1539 4.48059 23.6216 5.77575C24.7132 5.55394 25.843 5.4375 27 5.4375C36.3198 5.4375 43.875 12.9927 43.875 22.3125C43.875 34.4282 34.0532 44.25 21.9375 44.25C9.82175 44.25 0 34.4282 0 22.3125C0 21.3805 0.755519 20.625 1.6875 20.625C2.61948 20.625 3.375 21.3805 3.375 22.3125C3.375 32.5643 11.6857 40.875 21.9375 40.875C24.9771 40.875 27.8461 40.1444 30.3784 38.8493C29.2868 39.0711 28.157 39.1875 27 39.1875C17.6802 39.1875 10.125 31.6323 10.125 22.3125C10.125 10.1968 19.9468 0.375 32.0625 0.375C44.1782 0.375 54 10.1968 54 22.3125C54 23.2445 53.2445 24 52.3125 24C51.3805 24 50.625 23.2445 50.625 22.3125C50.625 12.0607 42.3143 3.75 32.0625 3.75ZM27 8.8125C19.5442 8.8125 13.5 14.8567 13.5 22.3125C13.5 29.7683 19.5442 35.8125 27 35.8125C34.4558 35.8125 40.5 29.7683 40.5 22.3125C40.5 14.8567 34.4558 8.8125 27 8.8125Z" fill="#F1C376"/>
</svg>
