<svg width="29" height="55" viewBox="0 0 29 55" fill="none" xmlns="http://www.w3.org/2000/svg">
<path d="M21.8571 42.9688C21.8571 45.8165 19.4587 48.125 16.5 48.125C13.5413 48.125 11.1429 45.8165 11.1429 42.9688C11.1429 40.7237 12.6336 38.8137 14.7143 38.1059V8.59375C14.7143 7.64451 15.5138 6.875 16.5 6.875C17.4862 6.875 18.2857 7.64451 18.2857 8.59375V38.1059C20.3664 38.8137 21.8571 40.7237 21.8571 42.9688Z" fill="#F1C376"/>
<path d="M7.57143 8.59375C7.57143 3.84755 11.5689 0 16.5 0C21.4311 0 25.4286 3.84755 25.4286 8.59375V34.5487C27.6359 36.717 29 39.6905 29 42.9688C29 49.6134 23.4036 55 16.5 55C9.59644 55 4 49.6134 4 42.9688C4 39.6905 5.36415 36.717 7.57143 34.5487V8.59375ZM16.5 3.4375C13.5413 3.4375 11.1429 5.74603 11.1429 8.59375V36.0504L10.5481 36.5628C8.71857 38.1389 7.57143 40.4237 7.57143 42.9688C7.57143 47.7149 11.5689 51.5625 16.5 51.5625C21.4311 51.5625 25.4286 47.7149 25.4286 42.9688C25.4286 40.4237 24.2814 38.1389 22.4519 36.5628L21.8571 36.0504V8.59375C21.8571 5.74603 19.4587 3.4375 16.5 3.4375Z" fill="#F1C376"/>
</svg>
