<svg width="25" height="55" viewBox="0 0 25 55" fill="none" xmlns="http://www.w3.org/2000/svg">
<path d="M17.8571 42.9688C17.8571 45.8165 15.4587 48.125 12.5 48.125C9.54133 48.125 7.14286 45.8165 7.14286 42.9688C7.14286 40.7237 8.63359 38.8137 10.7143 38.1059V8.59375C10.7143 7.64451 11.5138 6.875 12.5 6.875C13.4862 6.875 14.2857 7.64451 14.2857 8.59375V38.1059C16.3664 38.8137 17.8571 40.7237 17.8571 42.9688Z" fill="black"/>
<path d="M3.57143 8.59375C3.57143 3.84755 7.56889 0 12.5 0C17.4311 0 21.4286 3.84755 21.4286 8.59375V34.5487C23.6359 36.717 25 39.6905 25 42.9688C25 49.6134 19.4036 55 12.5 55C5.59644 55 0 49.6134 0 42.9688C0 39.6905 1.36415 36.717 3.57143 34.5487V8.59375ZM12.5 3.4375C9.54133 3.4375 7.14286 5.74603 7.14286 8.59375V36.0504L6.54806 36.5628C4.71857 38.1389 3.57143 40.4237 3.57143 42.9688C3.57143 47.7149 7.56889 51.5625 12.5 51.5625C17.4311 51.5625 21.4286 47.7149 21.4286 42.9688C21.4286 40.4237 20.2814 38.1389 18.4519 36.5628L17.8571 36.0504V8.59375C17.8571 5.74603 15.4587 3.4375 12.5 3.4375Z" fill="black"/>
</svg>
